<mxfile host="app.diagrams.net" modified="2024-02-13T15:54:51.714Z" agent="Mozilla/5.0 (Windows NT 10.0; Win64; x64) AppleWebKit/537.36 (KHTML, like Gecko) Chrome/114.0.0.0 Safari/537.36" version="23.1.4" etag="GejZrBAHu0sSlq-HY038" type="github">
  <diagram name="第 1 页" id="uojRkclgbND7mwovJl0b">
    <mxGraphModel>
      <root>
        <mxCell id="0" />
        <mxCell id="1" parent="0" />
      </root>
    </mxGraphModel>
  </diagram>
</mxfile>
